<svg width="362" height="70" viewBox="0 0 362 70" fill="none" xmlns="http://www.w3.org/2000/svg">
  <g clip-path="url(#clip0)">
    <path d="M107.076 56.8588C115.494 56.8588 121.255 52.0863 121.255 42.5412V41.7335H116.454V42.5412C116.454 49.2227 112.688 52.3066 107.076 52.3066C101.389 52.3066 97.6972 49.1493 97.6972 42.5412V23.1571H119.186V18.6782H97.6972V5.39136H92.7492V42.5412C92.7492 52.0863 98.5828 56.8588 107.076 56.8588Z" fill="black" />
    <path d="M145.67 56.8588C152.759 56.8588 158.815 53.4079 161.399 46.9466V56.0545H165.977V37.9888C165.977 26.5346 157.928 18.6782 146.408 18.6782C134.888 18.6782 126.764 26.6815 126.764 37.9888C126.764 49.5898 135.405 56.8588 145.67 56.8588ZM146.408 52.3066C137.694 52.3066 131.786 46.1389 131.786 37.7685C131.786 29.3982 137.694 23.2305 146.408 23.2305C155.122 23.2305 161.03 29.3982 161.03 37.7685C161.03 46.1389 155.122 52.3066 146.408 52.3066Z" fill="black" />
    <path d="M193.543 56.8587C205.137 56.8587 213.26 48.7821 213.26 37.6215C213.26 26.461 205.063 18.6781 194.355 18.6781C187.413 18.6781 181.727 21.9087 178.995 27.4155V3.77295H174.047V37.5481C174.047 49.2226 182.244 56.8587 193.543 56.8587ZM193.617 52.3064C184.829 52.3064 178.995 46.1388 178.995 37.7684C178.995 29.398 184.829 23.2304 193.617 23.2304C202.33 23.2304 208.238 29.398 208.238 37.7684C208.238 46.1388 202.33 52.3064 193.617 52.3064Z" fill="black" />
    <path d="M219.852 56.0545H224.799V36.9608C224.799 28.0031 229.969 23.2305 237.871 23.2305C245.772 23.2305 250.942 28.0031 250.942 36.9608V56.0545H255.89V36.9608C255.89 24.9193 248.652 18.6782 237.871 18.6782C227.089 18.6782 219.852 24.9193 219.852 36.9608V56.0545Z" fill="black" />
    <path d="M267.766 12.0664C269.908 12.0664 271.532 10.4511 271.532 8.32181C271.532 6.19248 269.908 4.57715 267.766 4.57715C265.625 4.57715 264 6.19248 264 8.32181C264 10.4511 265.625 12.0664 267.766 12.0664ZM265.329 56.0542H270.277V18.678H265.329V56.0542Z" fill="black" />
    <path d="M279.659 56.0545H284.606V36.9608C284.606 28.0031 289.776 23.2305 297.677 23.2305C305.579 23.2305 310.749 28.0031 310.749 36.9608V56.0545H315.696V36.9608C315.696 24.9193 308.459 18.6782 297.677 18.6782C286.896 18.6782 279.659 24.9193 279.659 36.9608V56.0545Z" fill="black" />
    <path d="M341.9 56.8588C350.392 56.8588 357.038 52.4534 359.845 45.7718H354.454C352.09 49.957 347.66 52.3066 341.9 52.3066C333.702 52.3066 328.016 46.9466 327.352 39.3839H361.395V37.7685C361.395 26.7549 353.419 18.6782 341.9 18.6782C330.38 18.6782 322.256 26.7549 322.256 37.7685C322.256 48.7822 330.38 56.8588 341.9 56.8588ZM327.499 34.9785C328.607 27.8563 334.293 23.2305 341.9 23.2305C349.285 23.2305 355.044 27.636 356.226 34.9785H327.499Z" fill="black" />
    <path fill-rule="evenodd" clip-rule="evenodd" d="M29.5271 0.167891C29.9148 -0.0559525 30.3925 -0.0559643 30.7801 0.167859L59.6809 16.8537C60.0685 17.0776 60.3074 17.4911 60.3074 17.9388V51.3105C60.3074 51.7581 60.0685 52.1717 59.6809 52.3956L30.7801 69.0814C30.3925 69.3052 29.9149 69.3052 29.5272 69.0814L0.626462 52.3956C0.238806 52.1717 0 51.7581 0 51.3105V17.9387C0 17.4911 0.23883 17.0775 0.626517 16.8536L14.9253 8.59917L29.5271 0.167891ZM13.9792 55.0893L13.8513 14.2345L4.34347 19.7232V49.5261L13.9792 55.0893ZM20.5062 58.8577L30.1536 64.4277L55.9639 49.5261V38.3862L20.5062 58.8577ZM53.7803 34.6314L18.1948 14.2347L18.3227 55.1029L53.7803 34.6314ZM20.3664 10.473L55.9639 30.8767V19.7231L30.1537 4.82162L20.3664 10.473Z" fill="url(#paint0_linear)" />
  </g>
  <defs>
    <linearGradient id="paint0_linear" x1="65.6328" y1="58.6887" x2="0.327822" y2="-0.36254" gradientUnits="userSpaceOnUse">
      <stop stop-color="#4BA1FC" />
      <stop offset="1" stop-color="#EC2AED" />
    </linearGradient>
    <clipPath id="clip0">
      <rect width="361.395" height="70" fill="white" />
    </clipPath>
  </defs>
</svg>
